<?xml version="1.0" encoding="utf-8"?>
<!-- Generator: Adobe Illustrator 26.0.3, SVG Export Plug-In . SVG Version: 6.00 Build 0)  -->
<svg version="1.1" class="smartphone-boost-roos fill-darkvibrant" xmlns="http://www.w3.org/2000/svg" xmlns:xlink="http://www.w3.org/1999/xlink" x="0px" y="0px"
	 viewBox="0 0 140 140" style="enable-background:new 0 0 140 140;" xml:space="preserve">
<g>
	<path class="fill-darkvibrant" d="M113.14,107.53c-0.07,2.34-1.17,4.06-3.3,4.99c-2.13,0.93-4.14,0.55-5.91-0.99c-0.22-0.19-0.42-0.41-0.62-0.61
		C71.56,79.17,39.81,47.41,8.05,15.66c-2.29-2.29-2.69-4.85-1.16-7.31c1.75-2.81,5.79-3.38,8.23-1.15c0.25,0.22,0.47,0.46,0.71,0.7
		c31.73,31.72,63.45,63.45,95.18,95.17C112.28,104.33,113.2,105.67,113.14,107.53z"/>
	<path class="fill-darkvibrant" d="M119.98,100.44c-1.35,0.08-2.56-0.48-3.63-1.42c-0.25-0.22-0.48-0.46-0.72-0.69
		c-28.85-28.85-57.7-57.71-86.56-86.55C27.28,9.99,26.39,8,27.25,5.49c1.12-3.29,4.96-4.71,7.95-2.94c0.63,0.38,1.2,0.89,1.73,1.41
		c28.83,28.82,57.63,57.66,86.5,86.44c2.89,2.88,2.51,6.36,0.94,8.14C123.21,99.83,121.89,100.45,119.98,100.44z"/>
	<path class="st0" d="M99.94,119.26c-0.06,2.29-1.14,3.99-3.18,4.95c-2.11,0.99-4.13,0.62-5.93-0.85c-0.29-0.24-0.54-0.52-0.8-0.78
		c-28.65-28.65-57.3-57.3-85.96-85.94c-1.09-1.09-1.94-2.27-2.07-3.85c-0.2-2.42,1.04-4.54,3.23-5.54c2.19-1,4.44-0.56,6.27,1.27
		c10.57,10.56,21.14,21.13,31.71,31.7c18.26,18.26,36.51,36.52,54.79,54.77C99.19,116.18,99.96,117.52,99.94,119.26z"/>
	<path class="fill-darkvibrant" d="M138.07,82.2c0.01,2.58-1.01,4.22-2.94,5.2c-1.96,1-3.94,0.87-5.76-0.44c-0.47-0.34-0.9-0.74-1.31-1.15
		C103.75,61.5,79.45,37.2,55.14,12.89c-1.28-1.28-2.19-2.7-2.13-4.59c0.07-2.14,1.02-3.77,2.9-4.74c1.91-0.98,3.85-0.91,5.67,0.29
		c0.51,0.34,0.97,0.78,1.41,1.22c24.31,24.3,48.61,48.61,72.92,72.91C137.2,79.26,138.18,80.64,138.07,82.2z"/>
	<path class="fill-darkvibrant" d="M88.21,132.4c-0.05,2.28-1.08,4.01-3.12,4.98c-2.14,1.02-4.2,0.72-6.03-0.84c-0.19-0.16-0.37-0.34-0.54-0.51
		C54.01,111.52,29.51,87.02,5,62.51c-2.11-2.11-2.52-4.53-1.21-6.89c1.67-3.03,5.72-3.76,8.35-1.51c0.31,0.27,0.61,0.57,0.9,0.86
		c24.36,24.36,48.72,48.72,73.09,73.07C87.35,129.26,88.23,130.6,88.21,132.4z"/>
</g>
</svg>
