<?xml version="1.0" encoding="utf-8"?>
<!-- Generator: Adobe Illustrator 26.0.3, SVG Export Plug-In . SVG Version: 6.00 Build 0)  -->
<svg version="1.1" class="smartphone-boost-wit fill-vibrant" xmlns="http://www.w3.org/2000/svg" xmlns:xlink="http://www.w3.org/1999/xlink" x="0px" y="0px"
	 viewBox="0 0 140 140" style="enable-background:new 0 0 140 140;" xml:space="preserve">
<g>
	<path class="fill-vibrant" d="M26.91,107.53c0.07,2.34,1.17,4.06,3.3,4.99c2.13,0.93,4.14,0.55,5.91-0.99c0.22-0.19,0.42-0.41,0.62-0.61
		C68.49,79.17,100.24,47.41,132,15.66c2.29-2.29,2.69-4.85,1.16-7.31c-1.75-2.81-5.79-3.38-8.23-1.15c-0.25,0.22-0.47,0.46-0.71,0.7
		c-31.73,31.72-63.45,63.45-95.18,95.17C27.77,104.33,26.85,105.67,26.91,107.53z"/>
	<path class="fill-vibrant" d="M20.07,100.44c1.35,0.08,2.56-0.48,3.63-1.42c0.25-0.22,0.48-0.46,0.72-0.69
		c28.85-28.85,57.7-57.71,86.56-86.55c1.79-1.79,2.68-3.78,1.82-6.29c-1.12-3.29-4.96-4.71-7.95-2.94c-0.63,0.38-1.2,0.89-1.73,1.41
		C74.3,32.77,45.49,61.61,16.63,90.39c-2.89,2.88-2.51,6.36-0.94,8.14C16.84,99.83,18.16,100.45,20.07,100.44z"/>
	<path class="fill-vibrant" d="M40.11,119.26c0.06,2.29,1.14,3.99,3.18,4.95c2.11,0.99,4.13,0.62,5.93-0.85c0.29-0.24,0.54-0.52,0.8-0.78
		c28.65-28.65,57.3-57.3,85.96-85.94c1.09-1.09,1.94-2.27,2.07-3.85c0.2-2.42-1.04-4.54-3.23-5.54c-2.19-1-4.44-0.56-6.27,1.27
		c-10.57,10.56-21.14,21.13-31.71,31.7C78.6,78.47,60.34,96.73,42.07,114.98C40.86,116.18,40.09,117.52,40.11,119.26z"/>
	<path class="fill-vibrant" d="M1.98,82.2c-0.01,2.58,1.01,4.22,2.94,5.2c1.96,1,3.94,0.87,5.76-0.44c0.47-0.34,0.9-0.74,1.31-1.15
		C36.29,61.5,60.6,37.2,84.91,12.89c1.28-1.28,2.19-2.7,2.13-4.59c-0.07-2.14-1.02-3.77-2.9-4.74c-1.91-0.98-3.85-0.91-5.67,0.29
		c-0.51,0.34-0.97,0.78-1.41,1.22C52.75,29.38,28.44,53.68,4.13,77.98C2.85,79.26,1.87,80.64,1.98,82.2z"/>
	<path class="fill-vibrant" d="M51.84,132.4c0.05,2.28,1.08,4.01,3.12,4.98c2.14,1.02,4.2,0.72,6.03-0.84c0.19-0.16,0.37-0.34,0.54-0.51
		c24.51-24.51,49.01-49.01,73.52-73.52c2.11-2.11,2.52-4.53,1.21-6.89c-1.67-3.03-5.72-3.76-8.35-1.51
		c-0.31,0.27-0.61,0.57-0.9,0.86c-24.36,24.36-48.72,48.72-73.09,73.07C52.7,129.26,51.82,130.6,51.84,132.4z"/>
</g>
</svg>
