<?xml version="1.0" encoding="utf-8"?>
<!-- Generator: Adobe Illustrator 25.4.1, SVG Export Plug-In . SVG Version: 6.00 Build 0)  -->
<svg version="1.1" id="controls-next" xmlns="http://www.w3.org/2000/svg" xmlns:xlink="http://www.w3.org/1999/xlink" x="0px" y="0px"
	 viewBox="0 0 70.87 56.69" style="enable-background:new 0 0 70.87 56.69;" xml:space="preserve">
<path id="Polygon_4" class="fill-vibrant controls" d="M67.23,22.74c2.88,1.61,3.9,5.26,2.29,8.13c-0.54,0.96-1.33,1.75-2.29,2.29L32.67,52.54
	c-2.88,1.61-6.52,0.59-8.13-2.29c-0.5-0.89-0.76-1.9-0.76-2.92V8.59c0-3.3,2.67-5.98,5.97-5.98c1.02,0,2.03,0.26,2.92,0.76
	L67.23,22.74z"/>
<path id="Polygon_5" class="fill-vibrant controls" d="M44.04,22.74c2.88,1.61,3.9,5.26,2.29,8.13c-0.54,0.96-1.33,1.75-2.29,2.29L9.48,52.54
	c-2.88,1.61-6.52,0.59-8.13-2.29c-0.5-0.89-0.76-1.9-0.76-2.92V8.59c0-3.3,2.67-5.98,5.97-5.98c1.02,0,2.03,0.26,2.92,0.76
	L44.04,22.74z"/>
</svg>



