<?xml version="1.0" encoding="utf-8"?>
<!-- Generator: Adobe Illustrator 25.4.1, SVG Export Plug-In . SVG Version: 6.00 Build 0)  -->
<svg version="1.1" id="controls-pause" xmlns="http://www.w3.org/2000/svg" xmlns:xlink="http://www.w3.org/1999/xlink" x="0px" y="0px"
	 viewBox="0 0 70.87 56.69" style="enable-background:new 0 0 70.87 56.69;" xml:space="preserve">
<path id="Path_3" class="fill-vibrant  controls" d="M17.9,0.45h3.45c3.48-0.22,6.55,1.76,6.9,4.46v46.88c-0.35,2.7-3.42,4.68-6.9,4.45H17.9
	c-3.48,0.22-6.54-1.76-6.9-4.45V4.91C11.35,2.21,14.42,0.22,17.9,0.45z"/>
<path id="Rectangle_46" class="fill-vibrant controls" d="M50.02,0.45h2.43c4.09,0,7.4,2.58,7.4,5.75v44.31c0,3.18-3.32,5.75-7.4,5.75h-2.43
	c-4.09,0-7.4-2.58-7.4-5.75V6.2C42.62,3.02,45.93,0.45,50.02,0.45z"/>
	<style type="text/css">
	.controls{
		fill: black;
	}
</style>
</svg>
