<?xml version="1.0" encoding="utf-8"?>
<!-- Generator: Adobe Illustrator 25.4.1, SVG Export Plug-In . SVG Version: 6.00 Build 0)  -->
<svg version="1.1" id="controls-previous" xmlns="http://www.w3.org/2000/svg" xmlns:xlink="http://www.w3.org/1999/xlink" x="0px" y="0px"
	 viewBox="0 0 70.87 56.69" style="enable-background:new 0 0 70.87 56.69;" xml:space="preserve">
<style type="text/css">
	.controls{
		fill: black;
	}
</style>
<path id="Polygon_4" class="controls" d="M3.64,33.17c-2.88-1.61-3.9-5.26-2.29-8.13c0.54-0.96,1.33-1.75,2.29-2.29L38.2,3.38
	c2.88-1.61,6.52-0.59,8.13,2.29c0.5,0.89,0.76,1.9,0.76,2.92v38.73c0,3.3-2.67,5.98-5.97,5.98c-1.02,0-2.03-0.26-2.92-0.76
	L3.64,33.17z"/>
<path id="Polygon_5" class="controls" d="M26.83,33.17c-2.88-1.61-3.9-5.26-2.29-8.13c0.54-0.96,1.33-1.75,2.29-2.29L61.39,3.38
	c2.88-1.61,6.52-0.59,8.13,2.29c0.5,0.89,0.76,1.9,0.76,2.92v38.73c0,3.3-2.67,5.98-5.97,5.98c-1.02,0-2.03-0.26-2.92-0.76
	L26.83,33.17z"/>
</svg>
