<?xml version="1.0" encoding="utf-8"?>
<!-- Generator: Adobe Illustrator 25.4.1, SVG Export Plug-In . SVG Version: 6.00 Build 0)  -->
<svg version="1.1" id="controls-next-slide" xmlns="http://www.w3.org/2000/svg" xmlns:xlink="http://www.w3.org/1999/xlink" x="0px" y="0px"
	 viewBox="0 0 70.9 56.7" style="enable-background:new 0 0 70.9 56.7;" xml:space="preserve">
<style type="text/css">
	.slide-controls{
		fill: black;
	}
</style>
<path id="Polygon_4" class="slide-controls" d="M66.3,23.1c2.9,1.6,3.9,5.3,2.3,8.2c-0.5,1-1.3,1.8-2.3,2.3L33.1,52.2c-2.9,1.6-6.6,0.6-8.2-2.3
	c-0.5-0.9-0.8-1.9-0.8-3V9.8c0-3.3,2.7-6,6-6c1,0,2.1,0.3,3,0.8L66.3,23.1z"/>
<path id="Polygon_5" class="slide-controls" d="M43.6,23.1c2.9,1.6,3.9,5.3,2.3,8.2c-0.5,1-1.3,1.8-2.3,2.3L10.5,52.2c-2.9,1.6-6.6,0.6-8.2-2.3
	c-0.5-0.9-0.8-1.9-0.8-3V9.8c0-3.3,2.7-6,6-6c1,0,2,0.3,2.9,0.8L43.6,23.1z"/>
</svg>
