<?xml version="1.0" encoding="utf-8"?>
<!-- Generator: Adobe Illustrator 25.4.1, SVG Export Plug-In . SVG Version: 6.00 Build 0)  -->
<svg version="1.1" id="controls-previous-slide" xmlns="http://www.w3.org/2000/svg" xmlns:xlink="http://www.w3.org/1999/xlink" x="0px" y="0px"
	 viewBox="0 0 70.9 56.7" style="enable-background:new 0 0 70.9 56.7;" xml:space="preserve">
<style type="text/css">
	.slide-controls{
		fill: black;
	}
</style>
<path id="Polygon_4" class="slide-controls" d="M4.6,34.2c-2.9-1.6-3.9-5.3-2.3-8.2c0.5-1,1.3-1.8,2.3-2.3L37.7,5.1c2.9-1.6,6.6-0.6,8.2,2.3
	c0.5,0.9,0.8,1.9,0.8,2.9v37.2c0,3.3-2.7,6-6,6c-1,0-2-0.3-3-0.8L4.6,34.2z"/>
<path id="Polygon_5" class="slide-controls" d="M27.2,34.2c-2.9-1.6-3.9-5.3-2.3-8.2c0.5-1,1.3-1.8,2.3-2.3L60.4,5.1c2.9-1.6,6.6-0.6,8.2,2.3
	c0.5,0.9,0.8,1.9,0.8,2.9v37.2c0,3.3-2.7,6-6,6c-1,0-2-0.3-3-0.8L27.2,34.2z"/>
</svg>
